#!OML:ASF E:\motion texture\Top Level 1\Subject 1\Session 1\male.ASF
:FULLY-SPECIFIED
:DEGREES
290
root -17.3453 17.8319 4.36889 478.241 -83.4854 -472.339
lowerback 0.383739 -8.43241 2.02321
upperback -4.56436 -11.2647 7.27677
thorax -3.86802 -5.6975 6.81423
lowerneck -0.35008 -17.2556 -15.8387
upperneck 8.32911 -25.0696 15.654
head 6.55249 -12.3416 5.06351
rclavicle -1.02523e-013 5.88403e-014
rhumerus -36.7831 -27.7969 -13.5862
rradius 48.3768
rwrist 7.79659
rhand -10.9924 -21.0484
rfingers 7.12502
rthumb 15.0278 -50.483
lclavicle -1.02523e-013 5.88403e-014
lhumerus -39.0132 18.2472 68.5516
lradius 26.8176
lwrist -30.4664
lhand -7.11752 19.1187
lfingers 7.12502
lthumb 18.7578 48.2343
rfemur -23.824 9.62622 28.38
rtibia 28.8848
rfoot -5.54861 -6.16035
rtoes 16.4725
lfemur -4.32327 -0.114864 -10.6035
ltibia 51.2493
lfoot 22.0458 -8.72367
ltoes -8.88067
291
root -17.4973 17.8393 4.348 475.37 -83.248 -469.625
lowerback 0.494187 -8.37575 2.26584
upperback -4.46319 -11.1808 7.32748
thorax -3.86766 -5.66351 6.74735
lowerneck -0.284309 -17.2608 -15.9131
upperneck 8.3907 -25.0687 15.5446
head 6.55494 -12.3482 5.04475
rclavicle 3.93594e-014 3.02153e-014
rhumerus -38.3852 -28.4514 -14.9485
rradius 48.372
rwrist 7.06276
rhand -10.9563 -21.5839
rfingers 7.12502
rthumb 15.0625 -51.016
lclavicle 3.93594e-014 3.02153e-014
lhumerus -39.0426 17.9406 69.1018
lradius 27.0065
lwrist -30.5008
lhand -6.82412 18.7631
lfingers 7.12502
lthumb 19.04 47.8512
rfemur -22.9819 9.39609 28.9648
rtibia 28.801
rfoot -6.04855 -6.17473
rtoes 16.4011
lfemur -5.45763 0.0882102 -9.9753
ltibia 53.1097
lfoot 20.8135 -8.64002
ltoes -9.20764
292
root -17.6478 17.8485 4.32772 473.331 -83.045 -467.739
lowerback 0.581073 -8.30224 2.43138
upperback -4.36954 -11.077 7.36464
thorax -3.8515 -5.61723 6.70238
lowerneck -0.214295 -17.2489 -15.9956
upperneck 8.48975 -25.0411 15.3837
head 6.55813 -12.3436 5.01589
rclavicle -4.52235e-015 5.24792e-014
rhumerus -39.8899 -29.1441 -16.3309
rradius 48.2927
rwrist 6.30015
rhand -10.8991 -22.1368
rfingers 7.12502
rthumb 15.1177 -51.5647
lclavicle -4.52235e-015 5.24792e-014
lhumerus -39.1175 17.6338 69.6461
lradius 27.2943
lwrist -30.536
lhand -6.52432 18.3392
lfingers 7.12502
lthumb 19.3283 47.3986
rfemur -22.1135 9.19418 29.4629
rtibia 28.6322
rfoot -6.50082 -6.17768
rtoes 16.3519
lfemur -6.5839 0.361891 -9.43804
ltibia 54.8644
lfoot 19.1379 -8.51086
ltoes -9.69703
293
root -17.7966 17.8589 4.30766 472.05 -82.8844 -466.606
lowerback 0.656247 -8.21375 2.50985
upperback -4.28654 -10.9556 7.3925
thorax -3.82672 -5.55941 6.69153
lowerneck -0.152992 -17.2184 -16.0816
upperneck 8.63447 -24.9838 15.1673
head 6.56533 -12.3258 4.97421
rclavicle 1.52816e-013 -4.92986e-014
rhumerus -41.2701 -29.8517 -17.7453
rradius 48.1319
rwrist 5.53125
rhand -10.8266 -22.6755
rfingers 7.12502
rthumb 15.1875 -52.0981
lclavicle 1.52816e-013 -4.92986e-014
lhumerus -39.246 17.3353 70.1787
lradius 27.6783
lwrist -30.5431
lhand -6.21363 17.8765
lfingers 7.12502
lthumb 19.627 46.9058
rfemur -21.223 9.04224 29.8771
rtibia 28.3872
rfoot -6.90124 -6.18232
rtoes 16.2526
lfemur -7.69481 0.708429 -8.98899
ltibia 56.4826
lfoot 17.2294 -8.31928
ltoes -10.307
294
root -17.9436 17.8701 4.28741 471.353 -82.7484 -466.049
lowerback 0.717301 -8.10958 2.5272
upperback -4.20893 -10.8156 7.41482
thorax -3.79102 -5.49049 6.70427
lowerneck -0.111204 -17.1714 -16.1594
upperneck 8.82131 -24.8995 14.9029
head 6.57738 -12.2953 4.91915
rclavicle -1.27371e-013 -6.36111e-015
rhumerus -42.5265 -30.5935 -19.1857
rradius 47.8872
rwrist 4.82265
rhand -10.7357 -23.174
rfingers 7.12502
rthumb 15.2751 -52.5899
lclavicle -1.27371e-013 -6.36111e-015
lhumerus -39.4009 17.0449 70.698
lradius 28.1357
lwrist -30.4939
lhand -5.88169 17.4078
lfingers 7.12502
lthumb 19.9461 46.4042
rfemur -20.3165 8.95535 30.2402
rtibia 28.074
rfoot -7.25587 -6.20361
rtoes 16.1082
lfemur -8.79087 1.12079 -8.59314
ltibia 57.9458
lfoot 15.2132 -8.04872
ltoes -11.143
295
root -18.0891 17.8816 4.26744 471.154 -82.6264 -465.987
lowerback 0.766665 -7.99 2.50558
upperback -4.1339 -10.6566 7.43136
thorax -3.74728 -5.41101 6.72916
lowerneck -0.0975756 -17.1117 -16.2163
upperneck 9.05093 -24.7912 14.5856
head 6.59437 -12.2533 4.84634
rclavicle 1.8487e-014 0
rhumerus -43.6564 -31.3762 -20.6474
rradius 47.5597
rwrist 4.23587
rhand -10.6183 -23.5959
rfingers 7.12502
rthumb 15.3881 -53.0033
lclavicle 1.8487e-014 0
lhumerus -39.5802 16.756 71.2016
lradius 28.6517
lwrist -30.3766
lhand -5.54962 16.9476
lfingers 7.12502
lthumb 20.2653 45.9104
rfemur -19.387 8.92721 30.5686
rtibia 27.6972
rfoot -7.56779 -6.23146
rtoes 15.9155
lfemur -9.85905 1.58659 -8.23989
ltibia 59.2353
lfoot 13.1804 -7.66495
ltoes -12.1939
296
root -18.2327 17.8932 4.24767 471.264 -82.4978 -466.223
lowerback 0.80998 -7.85824 2.47747
upperback -4.06115 -10.4819 7.44599
thorax -3.70347 -5.32351 6.75447
lowerneck -0.111657 -17.0406 -16.2468
upperneck 9.306 -24.6619 14.2349
head 6.61349 -12.2007 4.7608
rclavicle -9.80505e-014 2.8625e-014
rhumerus -44.6561 -32.2101 -22.1339
rradius 47.1487
rwrist 3.80649
rhand -10.4894 -23.9348
rfingers 7.12502
rthumb 15.5124 -53.3325
lclavicle -9.80505e-014 2.8625e-014
lhumerus -39.7743 16.4625 71.6842
lradius 29.2123
lwrist -30.1881
lhand -5.19995 16.5236
lfingers 7.12502
lthumb 20.6013 45.4504
rfemur -18.4476 8.94879 30.8919
rtibia 27.2712
rfoot -7.84068 -6.26908
rtoes 15.6916
lfemur -10.9114 2.09031 -7.89575
ltibia 60.3596
lfoot 11.1907 -7.16403
ltoes -13.3828
297
root -18.3747 17.9047 4.22857 471.582 -82.3612 -466.663
lowerback 0.845034 -7.71936 2.45779
upperback -3.99004 -10.2978 7.45548
thorax -3.66033 -5.23155 6.7687
lowerneck -0.146328 -16.9579 -16.2464
upperneck 9.5776 -24.5117 13.8565
head 6.63125 -12.138 4.66453
rclavicle -5.30258e-014 6.20208e-014
rhumerus -45.524 -33.0759 -23.6606
rradius 46.668
rwrist 3.5321
rhand -10.3971 -24.2201
rfingers 7.12502
rthumb 15.6012 -53.6109
lclavicle -5.30258e-014 6.20208e-014
lhumerus -39.9874 16.1637 72.1362
lradius 29.8096
lwrist -29.926
lhand -4.84499 16.1321
lfingers 7.12502
lthumb 20.9423 45.0216
rfemur -17.4988 8.99167 31.2123
rtibia 26.8032
rfoot -8.08014 -6.2953
rtoes 15.4759
lfemur -11.9442 2.61528 -7.56083
ltibia 61.3177
lfoot 9.26239 -6.56685
ltoes -14.4435
298
root -18.5149 17.9161 4.21031 472.03 -82.209 -467.223
lowerback 0.86733 -7.57562 2.46446
upperback -3.91974 -10.1071 7.45898
thorax -3.61731 -5.13706 6.76072
lowerneck -0.173802 -16.8581 -16.2259
upperneck 9.83313 -24.3376 13.4835
head 6.63833 -12.0646 4.57238
rclavicle 4.4329e-014 -9.85972e-014
rhumerus -46.2449 -33.9509 -25.2584
rradius 46.1216
rwrist 3.37063
rhand -10.399 -24.4984
rfingers 7.12502
rthumb 15.5994 -53.8894
lclavicle 4.4329e-014 -9.85972e-014
lhumerus -40.2178 15.8617 72.5481
lradius 30.433
lwrist -29.6112
lhand -4.47593 15.7785
lfingers 7.12502
lthumb 21.2969 44.6283
rfemur -16.5528 9.04743 31.537
rtibia 26.3076
rfoot -8.29171 -6.30602
rtoes 15.3001
lfemur -12.968 3.15148 -7.22624
ltibia 62.1222
lfoot 7.39696 -5.90879
ltoes -15.3439
299
root -18.653 17.9274 4.19309 472.549 -82.0513 -467.841
lowerback 0.877792 -7.43161 2.49457
upperback -3.85261 -9.91576 7.45382
thorax -3.57655 -5.04281 6.72975
lowerneck -0.194624 -16.7407 -16.1888
upperneck 10.0736 -24.1391 13.1168
head 6.63571 -11.9802 4.48481
rclavicle -5.97348e-014 1.03368e-013
rhumerus -46.7913 -34.7756 -26.9825
rradius 45.525
rwrist 3.20751
rhand -10.6094 -24.8868
rfingers 7.12502
rthumb 15.3967 -54.2935
lclavicle -5.97348e-014 1.03368e-013
lhumerus -40.4597 15.5604 72.9128
lradius 31.0711
lwrist -29.2362
lhand -4.08907 15.4599
lfingers 7.12502
lthumb 21.6684 44.2673
rfemur -15.6212 9.09912 31.8528
rtibia 25.7971
rfoot -8.48254 -6.2974
rtoes 15.1835
lfemur -13.9887 3.68191 -6.90526
ltibia 62.7758
lfoot 5.64335 -5.23283
ltoes -15.935
300
root -18.789 17.9388 4.17714 473.083 -81.8887 -468.46
lowerback 0.871319 -7.29018 2.55615
upperback -3.78546 -9.72781 7.43851
thorax -3.53269 -4.95106 6.66881
lowerneck -0.228431 -16.6071 -16.1244
upperneck 10.3086 -23.9149 12.7453
head 6.62695 -11.883 4.39537
rclavicle -9.22361e-014 4.13472e-014
rhumerus -47.1311 -35.5029 -28.8901
rradius 44.886
rwrist 2.94893
rhand -11.0601 -25.4368
rfingers 7.12502
rthumb 14.9626 -54.8762
lclavicle -9.22361e-014 4.13472e-014
lhumerus -40.6993 15.2619 73.2245
lradius 31.7106
lwrist -28.8056
lhand -3.69858 15.1674
lfingers 7.12502
lthumb 22.0434 43.9311
rfemur -14.7159 9.13618 32.1594
rtibia 25.2845
rfoot -8.66062 -6.26778
rtoes 15.1256
lfemur -15.0115 4.19375 -6.59964
ltibia 63.2774
lfoot 3.95912 -4.56577
ltoes -16.382
301
root -18.9228 17.9503 4.16243 473.637 -81.7307 -469.083
lowerback 0.853791 -7.15154 2.63777
upperback -3.72221 -9.54336 7.41488
thorax -3.4906 -4.86144 6.58728
lowerneck -0.277387 -16.4583 -16.0476
upperneck 10.5441 -23.6654 12.3632
head 6.61562 -11.7736 4.30333
rclavicle -2.43014e-014 -2.70347e-014
rhumerus -47.2303 -36.07 -31.0254
rradius 44.2077
rwrist 2.5033
rhand -11.7484 -26.1905
rfingers 7.12502
rthumb 14.2994 -55.6781
lclavicle -2.43014e-014 -2.70347e-014
lhumerus -40.9356 14.9843 73.4797
lradius 32.3389
lwrist -28.3532
lhand -3.28057 14.9041
lfingers 7.12502
lthumb 22.4447 43.6199
rfemur -13.843 9.15841 32.4455
rtibia 24.7781
rfoot -8.82403 -6.22367
rtoes 15.0644
lfemur -16.0363 4.67797 -6.32272
ltibia 63.6268
lfoot 2.36794 -3.92086
ltoes -16.6784
302
root -19.0544 17.9618 4.14898 474.219 -81.5833 -469.723
lowerback 0.829773 -7.01194 2.73446
upperback -3.65779 -9.35735 7.38059
thorax -3.44731 -4.77122 6.48541
lowerneck -0.368006 -16.3036 -15.9564
upperneck 10.7956 -23.3993 11.9597
head 6.61096 -11.6551 4.20087
rclavicle -2.09221e-014 6.36111e-015
rhumerus -47.0633 -36.428 -33.4336
rradius 43.506
rwrist 1.76908
rhand -12.7045 -27.2022
rfingers 7.12502
rthumb 13.378 -56.7527
lclavicle -2.09221e-014 6.36111e-015
lhumerus -41.1341 14.731 73.684
lradius 32.9284
lwrist -27.8896
lhand -2.8494 14.6621
lfingers 7.12502
lthumb 22.8585 43.3274
rfemur -13.002 9.16729 32.7041
rtibia 24.284
rfoot -8.9777 -6.1763
rtoes 15.0199
lfemur -17.0547 5.12613 -6.08313
ltibia 63.8222
lfoot 0.843987 -3.2945
ltoes -16.9554
303
root -19.1841 17.9731 4.13686 474.855 -81.4477 -470.409
lowerback 0.806342 -6.86559 2.84391
upperback -3.59749 -9.16133 7.33507
thorax -3.41252 -4.67594 6.36534
lowerneck -0.501909 -16.1508 -15.8539
upperneck 11.0763 -23.1268 11.5201
head 6.61764 -11.5333 4.08181
rclavicle -4.37326e-015 -5.64548e-014
rhumerus -46.6531 -36.5543 -36.0824
rradius 42.7831
rwrist 0.837647
rhand -13.7338 -28.3601
rfingers 7.12502
rthumb 12.3858 -57.9731
lclavicle -4.37326e-015 -5.64548e-014
lhumerus -41.3025 14.4958 73.8434
lradius 33.4702
lwrist -27.4376
lhand -2.43198 14.4279
lfingers 7.12502
lthumb 23.259 43.0432
rfemur -12.1883 9.16374 32.9335
rtibia 23.8053
rfoot -9.1247 -6.12833
rtoes 14.9703
lfemur -18.0546 5.53411 -5.8848
ltibia 63.8593
lfoot -0.597139 -2.66813
ltoes -17.1569
304
root -19.312 17.9839 4.12602 475.517 -81.3304 -471.115
lowerback 0.785463 -6.71188 2.95996
upperback -3.5406 -8.95451 7.27808
thorax -3.38542 -4.57502 6.2302
lowerneck -0.66516 -15.9989 -15.7552
upperneck 11.3759 -22.8496 11.0623
head 6.63463 -11.4096 3.95445
rclavicle -3.66758e-014 -3.97569e-015
rhumerus -46.0099 -36.4351 -38.9565
rradius 42.048
rwrist -0.193516
rhand -14.721 -29.6007
rfingers 7.12502
rthumb 11.4339 -59.2689
lclavicle -3.66758e-014 -3.97569e-015
lhumerus -41.4363 14.2779 73.9629
lradius 33.9605
lwrist -27.0114
lhand -2.01622 14.2205
lfingers 7.12502
lthumb 23.6578 42.7848
rfemur -11.3994 9.14009 33.1307
rtibia 23.3445
rfoot -9.26086 -6.09267
rtoes 14.8627
lfemur -19.034 5.89041 -5.73265
ltibia 63.7439
lfoot -1.93814 -2.03199
ltoes -17.2968
